<?xml version="1.0" encoding="utf-8"?>
<!-- Generator: Adobe Illustrator 24.0.1, SVG Export Plug-In . SVG Version: 6.00 Build 0)  -->
<svg version="1.1" id="Layer_1" xmlns="http://www.w3.org/2000/svg" xmlns:xlink="http://www.w3.org/1999/xlink" x="0px" y="0px"
	 viewBox="0 0 66 66" style="enable-background:new 0 0 66 66;" xml:space="preserve">
<style type="text/css">
	.st0{fill:#1DA1F2;}
	.st1{fill:#FFFFFF;}
	.st2{fill:#EA4C89;}
</style>
<g>
	<path class="st0" d="M18,7h30c2.2,0,4,1.8,4,4v30c0,2.2-1.8,4-4,4H18c-2.2,0-4-1.8-4-4V11C14,8.8,15.8,7,18,7z"/>
</g>
<path class="st1" d="M39.2,22.2c-0.5,0.2-0.9,0.3-1.5,0.4c0.5-0.3,0.9-0.8,1.1-1.4c-0.5,0.3-1,0.5-1.6,0.6c-0.5-0.5-1.1-0.8-1.8-0.8
	c-1.4,0-2.5,1.1-2.5,2.5c0,0.2,0,0.4,0.1,0.6c-2.1-0.1-4-1.1-5.2-2.6c-0.2,0.4-0.3,0.8-0.3,1.3c0,0.9,0.4,1.6,1.1,2.1
	c-0.4,0-0.8-0.1-1.1-0.3l0,0c0,1.2,0.9,2.2,2,2.5c-0.2,0.1-0.4,0.1-0.7,0.1c-0.2,0-0.3,0-0.5,0c0.3,1,1.3,1.7,2.4,1.8
	c-0.9,0.7-2,1.1-3.1,1.1c-0.2,0-0.4,0-0.6,0c1.1,0.7,2.4,1.1,3.9,1.1c4.6,0,7.2-3.8,7.2-7.2c0-0.1,0-0.2,0-0.3
	C38.4,23.1,38.8,22.7,39.2,22.2z"/>
<g>
	<path class="st2" d="M18,7h30c2.2,0,4,1.8,4,4v30c0,2.2-1.8,4-4,4H18c-2.2,0-4-1.8-4-4V11C14,8.8,15.8,7,18,7z"/>
</g>
<path class="st1" d="M34.8,31.7c-0.6,0.3-1.3,0.4-2,0.4c-1.2,0-2.4-0.4-3.3-1.2c0,0,0.1,0,0.1,0.1c1-2.1,4-3.2,4-3.2c0,0,0,0,0,0
	C34.4,29.7,34.7,31.3,34.8,31.7z M33.3,27c-0.1,0-0.1,0-0.2,0.1c0,0-2.8,0.9-4.2,3.4c-0.8-0.9-1.3-2.1-1.3-3.4c0-0.1,0-0.1,0-0.2
	c0.1,0,2.6,0.1,5.3-0.7C33.1,26.4,33.2,26.7,33.3,27z M32.5,25.3c-2.5,0.6-4.6,0.6-4.7,0.6c0.3-1.6,1.4-2.9,2.8-3.6
	C30.7,22.5,31.6,23.7,32.5,25.3z M37.8,27.8c-0.2,1.4-1,2.7-2.2,3.4c-0.1-0.3-0.3-1.8-1-3.7C36.3,27.3,37.7,27.8,37.8,27.8z
	 M31.6,22C31.5,22,31.5,22,31.6,22C31.5,22,31.5,22,31.6,22z M36.2,23.2c0,0-0.7,1.1-2.7,1.9c-0.9-1.6-1.8-2.9-1.9-3
	c0.4-0.1,0.8-0.1,1.2-0.1C34.1,21.9,35.3,22.4,36.2,23.2z M37.9,26.9c-0.1,0-1.8-0.4-3.6-0.2c0-0.1-0.1-0.2-0.1-0.3
	c-0.1-0.3-0.2-0.5-0.3-0.7c2-0.8,2.8-2,2.9-2C37.5,24.6,37.9,25.7,37.9,26.9z M38.8,27c0-3.3-2.7-6-6-6s-6,2.7-6,6s2.7,6,6,6
	S38.8,30.3,38.8,27z"/>
</svg>
