<?xml version="1.0" encoding="utf-8"?>
<!-- Generator: Adobe Illustrator 24.0.1, SVG Export Plug-In . SVG Version: 6.00 Build 0)  -->
<svg version="1.1" id="Layer_1" xmlns="http://www.w3.org/2000/svg" xmlns:xlink="http://www.w3.org/1999/xlink" x="0px" y="0px"
	 viewBox="0 0 66 66" style="enable-background:new 0 0 66 66;" xml:space="preserve">
<style type="text/css">
	.st0{fill:#1DA1F2;}
	.st1{fill:#FFFFFF;}
</style>
<g>
	<path class="st0" d="M18,7h30c2.2,0,4,1.8,4,4v30c0,2.2-1.8,4-4,4H18c-2.2,0-4-1.8-4-4V11C14,8.8,15.8,7,18,7z"/>
</g>
<path class="st1" d="M39.2,22.2c-0.5,0.2-0.9,0.3-1.5,0.4c0.5-0.3,0.9-0.8,1.1-1.4c-0.5,0.3-1,0.5-1.6,0.6c-0.5-0.5-1.1-0.8-1.8-0.8
	c-1.4,0-2.5,1.1-2.5,2.5c0,0.2,0,0.4,0.1,0.6c-2.1-0.1-4-1.1-5.2-2.6c-0.2,0.4-0.3,0.8-0.3,1.3c0,0.9,0.4,1.6,1.1,2.1
	c-0.4,0-0.8-0.1-1.1-0.3c0,0,0,0,0,0c0,1.2,0.9,2.2,2,2.5c-0.2,0.1-0.4,0.1-0.7,0.1c-0.2,0-0.3,0-0.5,0c0.3,1,1.3,1.7,2.4,1.8
	c-0.9,0.7-2,1.1-3.1,1.1c-0.2,0-0.4,0-0.6,0c1.1,0.7,2.4,1.1,3.9,1.1c4.6,0,7.2-3.8,7.2-7.2c0-0.1,0-0.2,0-0.3
	C38.4,23.1,38.8,22.7,39.2,22.2z"/>
</svg>
