<svg width="122" height="15" viewBox="0 0 122 15" fill="none" xmlns="http://www.w3.org/2000/svg">
<path d="M6.1168 4.0957C5.67474 4.0957 5.33294 4.26432 5.09141 4.60156C4.84987 4.9388 4.7291 5.40592 4.7291 6.00293C4.7291 7.27897 5.19167 7.91699 6.1168 7.91699C6.37656 7.91699 6.65684 7.88281 6.95762 7.81445C7.2584 7.74609 7.53867 7.64583 7.79844 7.51367V8.81934C7.25156 9.0791 6.67735 9.20898 6.07578 9.20898C5.1461 9.20898 4.42604 8.92415 3.91563 8.35449C3.40521 7.78483 3.15 6.99642 3.15 5.98926C3.15 4.98665 3.40065 4.20736 3.90195 3.65137C4.40781 3.09082 5.11419 2.81055 6.0211 2.81055C6.70013 2.81055 7.39512 2.98828 8.10606 3.34375L7.6002 4.49219C7.08522 4.22786 6.59076 4.0957 6.1168 4.0957ZM0.682228 6.00293C0.682228 5.09147 0.910093 4.23698 1.36582 3.43945C1.82155 2.64193 2.44818 2.01302 3.2457 1.55273C4.04323 1.09245 4.90228 0.862305 5.82285 0.862305C6.73431 0.862305 7.5888 1.09017 8.38633 1.5459C9.18386 2.00163 9.81276 2.62826 10.273 3.42578C10.7333 4.22331 10.9635 5.08236 10.9635 6.00293C10.9635 6.90072 10.7424 7.74382 10.3004 8.53223C9.85833 9.32064 9.23854 9.95182 8.44102 10.4258C7.64349 10.8997 6.77077 11.1367 5.82285 11.1367C4.87949 11.1367 4.00905 10.902 3.21152 10.4326C2.414 9.95866 1.79193 9.32747 1.34531 8.53906C0.903257 7.75065 0.682228 6.90527 0.682228 6.00293ZM1.65293 6.00293C1.65293 6.75033 1.83978 7.44759 2.21348 8.09473C2.58718 8.7373 3.09759 9.24544 3.74473 9.61914C4.39186 9.98828 5.08457 10.1729 5.82285 10.1729C6.57025 10.1729 7.26524 9.986 7.90781 9.6123C8.55495 9.23861 9.06309 8.72819 9.43223 8.08105C9.80593 7.43392 9.99277 6.74121 9.99277 6.00293C9.99277 5.25553 9.80593 4.56055 9.43223 3.91797C9.05853 3.27083 8.54811 2.7627 7.90098 2.39355C7.25384 2.01986 6.56113 1.83301 5.82285 1.83301C5.07546 1.83301 4.37819 2.01986 3.73106 2.39355C3.08848 2.76725 2.58034 3.27767 2.20664 3.9248C1.8375 4.57194 1.65293 5.26465 1.65293 6.00293ZM22.0307 11H15.0443V9.53027L17.5531 6.99414C18.296 6.23307 18.7813 5.70671 19.0092 5.41504C19.237 5.11882 19.4011 4.84538 19.5014 4.59473C19.6016 4.34408 19.6518 4.08431 19.6518 3.81543C19.6518 3.41439 19.5401 3.11589 19.3168 2.91992C19.098 2.72396 18.8041 2.62598 18.435 2.62598C18.0476 2.62598 17.6716 2.71484 17.307 2.89258C16.9424 3.07031 16.5619 3.32324 16.1654 3.65137L15.017 2.29102C15.5092 1.87174 15.9171 1.57552 16.2406 1.40234C16.5642 1.22917 16.9174 1.09701 17.3002 1.00586C17.683 0.910156 18.1114 0.862305 18.5854 0.862305C19.2097 0.862305 19.7611 0.976237 20.2396 1.2041C20.7182 1.43197 21.0896 1.75098 21.3539 2.16113C21.6182 2.57129 21.7504 3.04069 21.7504 3.56934C21.7504 4.02962 21.6684 4.46257 21.5043 4.86816C21.3448 5.26921 21.0941 5.68164 20.7523 6.10547C20.4151 6.5293 19.8181 7.13314 18.9613 7.91699L17.6762 9.12695V9.22266H22.0307V11ZM29.574 6.00293C29.574 7.74837 29.2869 9.04036 28.7127 9.87891C28.143 10.7174 27.2635 11.1367 26.074 11.1367C24.921 11.1367 24.0506 10.7038 23.4627 9.83789C22.8794 8.97201 22.5877 7.69368 22.5877 6.00293C22.5877 4.23926 22.8725 2.94043 23.4422 2.10645C24.0118 1.2679 24.8891 0.848633 26.074 0.848633C27.227 0.848633 28.0975 1.28613 28.6854 2.16113C29.2778 3.03613 29.574 4.31673 29.574 6.00293ZM24.6863 6.00293C24.6863 7.22884 24.7911 8.1084 25.0008 8.6416C25.215 9.17025 25.5727 9.43457 26.074 9.43457C26.5662 9.43457 26.9217 9.16569 27.1404 8.62793C27.3592 8.09017 27.4686 7.21517 27.4686 6.00293C27.4686 4.77702 27.3569 3.89746 27.1336 3.36426C26.9148 2.8265 26.5617 2.55762 26.074 2.55762C25.5773 2.55762 25.2218 2.8265 25.0076 3.36426C24.7934 3.89746 24.6863 4.77702 24.6863 6.00293ZM35.4631 11H33.3508V5.2168L33.3713 4.2666L33.4055 3.22754C33.0546 3.57845 32.8107 3.80859 32.674 3.91797L31.5256 4.84082L30.507 3.56934L33.7268 1.00586H35.4631V11ZM41.2838 0.875977C42.2408 0.875977 43.011 1.09473 43.5943 1.53223C44.1822 1.96517 44.4762 2.55078 44.4762 3.28906C44.4762 3.79948 44.3349 4.25521 44.0523 4.65625C43.7698 5.05273 43.3141 5.4082 42.6852 5.72266C43.4326 6.1237 43.968 6.54297 44.2916 6.98047C44.6197 7.41341 44.7838 7.88965 44.7838 8.40918C44.7838 9.22949 44.4625 9.8903 43.8199 10.3916C43.1773 10.8883 42.332 11.1367 41.2838 11.1367C40.19 11.1367 39.331 10.9043 38.7066 10.4395C38.0823 9.97461 37.7701 9.31608 37.7701 8.46387C37.7701 7.89421 37.9205 7.38835 38.2213 6.94629C38.5266 6.50423 39.0143 6.11458 39.6842 5.77734C39.1145 5.41732 38.7044 5.03223 38.4537 4.62207C38.2031 4.21191 38.0777 3.76302 38.0777 3.27539C38.0777 2.5599 38.374 1.98112 38.9664 1.53906C39.5589 1.09701 40.3313 0.875977 41.2838 0.875977ZM39.7252 8.34082C39.7252 8.73275 39.8619 9.03809 40.1354 9.25684C40.4088 9.47559 40.7825 9.58496 41.2564 9.58496C41.7805 9.58496 42.1725 9.47331 42.4322 9.25C42.692 9.02214 42.8219 8.72363 42.8219 8.35449C42.8219 8.04915 42.692 7.76432 42.4322 7.5C42.177 7.23112 41.76 6.94629 41.1813 6.64551C40.2105 7.09212 39.7252 7.65723 39.7252 8.34082ZM41.2701 2.4209C40.9101 2.4209 40.6184 2.51432 40.3951 2.70117C40.1764 2.88346 40.067 3.12956 40.067 3.43945C40.067 3.71289 40.1536 3.95898 40.3268 4.17773C40.5045 4.39193 40.8235 4.61296 41.2838 4.84082C41.7304 4.63118 42.0426 4.41699 42.2203 4.19824C42.398 3.97949 42.4869 3.72656 42.4869 3.43945C42.4869 3.125 42.373 2.87663 42.1451 2.69434C41.9173 2.51204 41.6256 2.4209 41.2701 2.4209Z" fill="#525F7F"/>
<path d="M58.5066 8.22461C58.5066 9.12695 58.1808 9.83789 57.5291 10.3574C56.882 10.877 55.9796 11.1367 54.8221 11.1367C53.7557 11.1367 52.8123 10.9362 51.992 10.5352V8.56641C52.6665 8.86719 53.2361 9.0791 53.701 9.20215C54.1704 9.3252 54.5988 9.38672 54.9861 9.38672C55.451 9.38672 55.8064 9.29785 56.0525 9.12012C56.3032 8.94238 56.4285 8.67806 56.4285 8.32715C56.4285 8.13118 56.3738 7.95801 56.2645 7.80762C56.1551 7.65267 55.9933 7.50456 55.7791 7.36328C55.5695 7.22201 55.1388 6.99642 54.4871 6.68652C53.8764 6.39941 53.4184 6.1237 53.1131 5.85938C52.8077 5.59505 52.5639 5.28743 52.3816 4.93652C52.1993 4.58561 52.1082 4.17546 52.1082 3.70605C52.1082 2.82194 52.4067 2.12695 53.0037 1.62109C53.6053 1.11523 54.4347 0.862305 55.492 0.862305C56.0115 0.862305 56.506 0.923828 56.9754 1.04688C57.4493 1.16992 57.9438 1.3431 58.4588 1.56641L57.7752 3.21387C57.242 2.99512 56.7999 2.84245 56.449 2.75586C56.1027 2.66927 55.7609 2.62598 55.4236 2.62598C55.0226 2.62598 54.715 2.7194 54.5008 2.90625C54.2866 3.0931 54.1795 3.33691 54.1795 3.6377C54.1795 3.82454 54.2228 3.98861 54.3094 4.12988C54.396 4.2666 54.5327 4.40104 54.7195 4.5332C54.9109 4.66081 55.3598 4.89323 56.0662 5.23047C57.0005 5.67708 57.6408 6.12598 57.9871 6.57715C58.3335 7.02376 58.5066 7.57292 58.5066 8.22461ZM56.6268 12.709C56.6268 13.2923 56.4536 13.7139 56.1072 13.9736C55.7654 14.2334 55.2345 14.3633 54.5145 14.3633C54.159 14.3633 53.8263 14.3154 53.5164 14.2197V13.0713C53.6395 13.1032 53.8035 13.1351 54.0086 13.167C54.2182 13.1989 54.38 13.2148 54.4939 13.2148C54.8221 13.2148 54.9861 13.0736 54.9861 12.791C54.9861 12.4128 54.6079 12.1667 53.8514 12.0527L54.3846 11H55.7039L55.5193 11.417C55.8566 11.5264 56.1255 11.695 56.326 11.9229C56.5265 12.1553 56.6268 12.4173 56.6268 12.709ZM59.6652 1.38184C59.6652 0.702799 60.0435 0.363281 60.8 0.363281C61.5565 0.363281 61.9348 0.702799 61.9348 1.38184C61.9348 1.7054 61.8391 1.95833 61.6477 2.14062C61.4608 2.31836 61.1783 2.40723 60.8 2.40723C60.0435 2.40723 59.6652 2.06543 59.6652 1.38184ZM61.8391 11H59.7541V3.35742H61.8391V11ZM65.6363 6.84375L66.5455 5.68164L68.6852 3.35742H71.0367L68.0016 6.67285L71.2213 11H68.815L66.6139 7.90332L65.7184 8.62109V11H63.6334V0.363281H65.7184V5.10742L65.609 6.84375H65.6363ZM76.7686 11L76.3652 9.96094H76.3105C75.9596 10.403 75.5973 10.7106 75.2236 10.8838C74.8545 11.0524 74.3714 11.1367 73.7744 11.1367C73.0407 11.1367 72.4619 10.9271 72.0381 10.5078C71.6188 10.0885 71.4092 9.49154 71.4092 8.7168C71.4092 7.9056 71.6917 7.30859 72.2568 6.92578C72.8265 6.53841 73.6833 6.32422 74.8271 6.2832L76.1533 6.24219V5.90723C76.1533 5.13249 75.7568 4.74512 74.9639 4.74512C74.3532 4.74512 73.6354 4.92969 72.8105 5.29883L72.1201 3.89062C72.9997 3.43034 73.9749 3.2002 75.0459 3.2002C76.0713 3.2002 76.8574 3.4235 77.4043 3.87012C77.9512 4.31673 78.2246 4.99577 78.2246 5.90723V11H76.7686ZM76.1533 7.45898L75.3467 7.48633C74.7406 7.50456 74.2894 7.61393 73.9932 7.81445C73.6969 8.01497 73.5488 8.32031 73.5488 8.73047C73.5488 9.31836 73.8861 9.6123 74.5605 9.6123C75.0436 9.6123 75.4287 9.47331 75.7158 9.19531C76.0075 8.91732 76.1533 8.54818 76.1533 8.08789V7.45898ZM78.8842 3.35742H81.1674L82.6098 7.65723C82.7328 8.03092 82.8171 8.47298 82.8627 8.9834H82.9037C82.9538 8.514 83.0518 8.07194 83.1977 7.65723L84.6127 3.35742H86.848L83.6146 11.9775C83.3184 12.7751 82.8946 13.3721 82.3432 13.7686C81.7963 14.165 81.156 14.3633 80.4223 14.3633C80.0622 14.3633 79.709 14.3245 79.3627 14.2471V12.5928C79.6133 12.652 79.8868 12.6816 80.183 12.6816C80.5521 12.6816 80.8734 12.5677 81.1469 12.3398C81.4249 12.1165 81.6413 11.777 81.7963 11.3213L81.9193 10.9453L78.8842 3.35742ZM90.7137 4.69727C90.2716 4.69727 89.9253 4.83854 89.6746 5.12109C89.424 5.39909 89.2804 5.79557 89.2439 6.31055H92.1697C92.1606 5.79557 92.0262 5.39909 91.7664 5.12109C91.5066 4.83854 91.1557 4.69727 90.7137 4.69727ZM91.0076 11.1367C89.7772 11.1367 88.8156 10.7972 88.1229 10.1182C87.4301 9.43913 87.0838 8.47754 87.0838 7.2334C87.0838 5.9528 87.4028 4.96387 88.0408 4.2666C88.6834 3.56478 89.5698 3.21387 90.7 3.21387C91.7801 3.21387 92.6209 3.52148 93.2225 4.13672C93.824 4.75195 94.1248 5.60189 94.1248 6.68652V7.69824H89.1961C89.2189 8.29069 89.3943 8.75326 89.7225 9.08594C90.0506 9.41862 90.5109 9.58496 91.1033 9.58496C91.5636 9.58496 91.9988 9.53711 92.409 9.44141C92.8191 9.3457 93.2475 9.19303 93.6941 8.9834V10.5967C93.3296 10.779 92.9399 10.9134 92.5252 11C92.1105 11.0911 91.6046 11.1367 91.0076 11.1367ZM98.6398 9.47559C99.0044 9.47559 99.4419 9.39583 99.9523 9.23633V10.7881C99.4328 11.0205 98.7948 11.1367 98.0383 11.1367C97.2043 11.1367 96.5959 10.9271 96.2131 10.5078C95.8348 10.084 95.6457 9.45052 95.6457 8.60742V4.92285H94.6477V4.04102L95.7961 3.34375L96.3977 1.73047H97.7307V3.35742H99.8703V4.92285H97.7307V8.60742C97.7307 8.90365 97.8127 9.1224 97.9768 9.26367C98.1454 9.40495 98.3664 9.47559 98.6398 9.47559ZM102.922 11L100.01 3.35742H102.191L103.668 7.71191C103.832 8.26335 103.934 8.78516 103.975 9.27734H104.016C104.039 8.83984 104.142 8.31803 104.324 7.71191L105.794 3.35742H107.974L105.062 11H102.922ZM113.528 11L113.125 9.96094H113.07C112.719 10.403 112.357 10.7106 111.983 10.8838C111.614 11.0524 111.131 11.1367 110.534 11.1367C109.8 11.1367 109.222 10.9271 108.798 10.5078C108.379 10.0885 108.169 9.49154 108.169 8.7168C108.169 7.9056 108.451 7.30859 109.017 6.92578C109.586 6.53841 110.443 6.32422 111.587 6.2832L112.913 6.24219V5.90723C112.913 5.13249 112.517 4.74512 111.724 4.74512C111.113 4.74512 110.395 4.92969 109.57 5.29883L108.88 3.89062C109.759 3.43034 110.735 3.2002 111.806 3.2002C112.831 3.2002 113.617 3.4235 114.164 3.87012C114.711 4.31673 114.984 4.99577 114.984 5.90723V11H113.528ZM112.913 7.45898L112.106 7.48633C111.5 7.50456 111.049 7.61393 110.753 7.81445C110.457 8.01497 110.309 8.32031 110.309 8.73047C110.309 9.31836 110.646 9.6123 111.32 9.6123C111.803 9.6123 112.188 9.47331 112.476 9.19531C112.767 8.91732 112.913 8.54818 112.913 8.08789V7.45898ZM121.003 3.21387C121.286 3.21387 121.521 3.23438 121.707 3.27539L121.55 5.23047C121.382 5.1849 121.176 5.16211 120.935 5.16211C120.27 5.16211 119.75 5.33301 119.376 5.6748C119.007 6.0166 118.823 6.49512 118.823 7.11035V11H116.738V3.35742H118.317L118.624 4.64258H118.727C118.964 4.21419 119.283 3.87012 119.684 3.61035C120.09 3.34603 120.529 3.21387 121.003 3.21387Z" fill="#00CDAC"/>
</svg>
